<svg xmlns="http://www.w3.org/2000/svg" width="1200" height="630" viewBox="0 0 1200 630">
  <defs>
    <linearGradient id="bg" x1="0" y1="0" x2="1" y2="1">
      <stop offset="0" stop-color="#0d1117"/>
      <stop offset="1" stop-color="#161b22"/>
    </linearGradient>
    <linearGradient id="accent" x1="0" y1="0" x2="1" y2="0">
      <stop offset="0" stop-color="#58a6ff"/>
      <stop offset="0.5" stop-color="#a371f7"/>
      <stop offset="1" stop-color="#db61a2"/>
    </linearGradient>
  </defs>

  <rect width="1200" height="630" fill="url(#bg)"/>
  <rect x="90" y="120" width="1020" height="390" rx="24" fill="#0b1220" opacity="0.6"/>
  <rect x="90" y="120" width="1020" height="6" fill="url(#accent)"/>

  <text x="140" y="230" fill="#f0f6fc" font-family="Inter, system-ui, -apple-system, Segoe UI, sans-serif" font-size="54" font-weight="700">MD Rafiul Islam</text>
  <text x="140" y="290" fill="#8b949e" font-family="Inter, system-ui, -apple-system, Segoe UI, sans-serif" font-size="28" font-weight="500">Applied AI &amp; Research Engineer</text>

  <text x="140" y="360" fill="#f0f6fc" font-family="JetBrains Mono, ui-monospace, SFMono-Regular, Menlo, Monaco, Consolas, monospace" font-size="22">Computer Vision • Edge AI • MLOps • Research</text>

  <circle cx="1010" cy="250" r="72" fill="#161b22" stroke="#30363d"/>
  <path d="M1010 200c-24 0-44 20-44 44 0 19 13 36 31 42 2 1 3 0 3-2v-12c-13 3-16-6-16-6-2-6-5-8-5-8-4-3 0-3 0-3 5 0 8 5 8 5 4 8 11 6 14 5 0-3 1-6 3-7-10-1-20-5-20-22 0-5 2-9 5-12-1-1-2-5 1-11 0 0 4-1 12 5 7-2 14-2 21 0 8-6 12-5 12-5 3 6 2 10 1 11 3 3 5 7 5 12 0 17-10 21-20 22 2 2 3 5 3 10v15c0 2 1 3 3 2 18-6 31-23 31-42 0-24-20-44-44-44z" fill="#58a6ff"/>
</svg>
